<?xml version="1.0" encoding="UTF-8"?>
<!DOCTYPE svg PUBLIC "-//W3C//DTD SVG 1.1//EN" "http://www.w3.org/Graphics/SVG/1.1/DTD/svg11.dtd">
<!-- Creator: CorelDRAW X8 -->
<svg xmlns="http://www.w3.org/2000/svg" xml:space="preserve" width="70.8678mm" height="66.4883mm" version="1.1" style="shape-rendering:geometricPrecision; text-rendering:geometricPrecision; image-rendering:optimizeQuality; fill-rule:evenodd; clip-rule:evenodd"
viewBox="0 0 7551 7085"
 xmlns:xlink="http://www.w3.org/1999/xlink">
 <defs>
  <style type="text/css">
   <![CDATA[
    .fil0 {fill:#615FFF}
   ]]>
  </style>
 </defs>
 <g id="Layer_x0020_1">
  <metadata id="CorelCorpID_0Corel-Layer"/>
  <polygon class="fil0" points="1617,1878 970,2598 3182,2598 3182,6001 3875,5394 3875,1878 "/>
  <path class="fil0" d="M6034 1885l-722 -7 0 2266 722 -614 0 -1645zm-2258 -1885c2085,0 3775,1586 3775,3542 0,1957 -1690,3543 -3775,3543 -2086,0 -3776,-1586 -3776,-3543 0,-1956 1690,-3542 3776,-3542zm0 426c1834,0 3321,1395 3321,3116 0,1721 -1487,3117 -3321,3117 -1835,0 -3322,-1396 -3322,-3117 0,-1721 1487,-3116 3322,-3116zm1167 1459l-722 -7 0 3219 722 -614 0 -2598z"/>
 </g>
</svg>
